<svg width="127" height="859" viewBox="0 0 127 859" fill="none" xmlns="http://www.w3.org/2000/svg">
<g filter="url(#filter0_d_90_18615)">
<path d="M-697.422 317.736C-614.872 255.104 -508.916 -287.383 -405.482 -293.597C-302.049 -299.812 -15.3958 -42.2715 74.0587 10.0259C163.513 62.3232 45.0619 412.77 90.3858 505.952C135.71 599.133 9.58415 744.342 -4.49951 847L-380.75 735.112L-697.422 317.736Z" fill="url(#paint0_linear_90_18615)"/>
<path d="M-696.723 317.83C-686.435 309.842 -675.841 294.557 -664.977 273.974C-653.964 253.109 -642.641 226.735 -631.059 196.847C-607.897 137.073 -583.676 63.1777 -558.811 -8.92423C-533.942 -81.04 -508.43 -151.363 -482.676 -204.043C-469.799 -230.384 -456.873 -252.288 -443.954 -267.793C-431.02 -283.315 -418.168 -292.335 -405.452 -293.099C-392.622 -293.869 -376.906 -290.55 -359.021 -284.01C-341.144 -277.473 -321.138 -267.733 -299.743 -255.696C-256.952 -231.624 -208.647 -198.393 -160.765 -163.324C-112.883 -128.255 -65.4404 -91.3593 -24.3666 -59.9544C16.6941 -28.5594 51.4105 -2.63569 73.8067 10.4577C84.8556 16.9173 92.7294 27.9986 98.1152 42.7001C103.502 57.4039 106.386 75.6923 107.476 96.4998C109.656 138.116 104.657 189.697 98.2745 242.597C91.8938 295.478 84.129 349.679 80.7945 396.471C79.127 419.869 78.5662 441.433 79.8418 460.068C81.0772 478.114 84.0373 493.451 89.4092 505.059L89.9363 506.17C101.202 529.332 101.83 555.756 96.1714 584.016C90.5124 612.279 78.5758 642.332 64.7663 672.715C57.8624 687.905 50.494 703.169 43.212 718.33C35.9311 733.488 28.7359 748.542 22.1841 763.303C9.18135 792.597 -1.30533 820.772 -4.91349 846.357L-380.45 734.68L-696.723 317.83Z" stroke="white" stroke-opacity="0.3"/>
</g>
<defs>
<filter id="filter0_d_90_18615" x="-699.422" y="-301.708" width="825.916" height="1160.71" filterUnits="userSpaceOnUse" color-interpolation-filters="sRGB">
<feFlood flood-opacity="0" result="BackgroundImageFix"/>
<feColorMatrix in="SourceAlpha" type="matrix" values="0 0 0 0 0 0 0 0 0 0 0 0 0 0 0 0 0 0 127 0" result="hardAlpha"/>
<feOffset dx="8" dy="2"/>
<feGaussianBlur stdDeviation="5"/>
<feComposite in2="hardAlpha" operator="out"/>
<feColorMatrix type="matrix" values="0 0 0 0 1 0 0 0 0 1 0 0 0 0 1 0 0 0 0.25 0"/>
<feBlend mode="normal" in2="BackgroundImageFix" result="effect1_dropShadow_90_18615"/>
<feBlend mode="normal" in="SourceGraphic" in2="effect1_dropShadow_90_18615" result="shape"/>
</filter>
<linearGradient id="paint0_linear_90_18615" x1="-522.83" y1="547.849" x2="117.785" y2="61.8014" gradientUnits="userSpaceOnUse">
<stop stop-color="#0F3069"/>
<stop offset="1" stop-color="#003EAA"/>
</linearGradient>
</defs>
</svg>
