<svg width="279" height="712" viewBox="0 0 279 712" fill="none" xmlns="http://www.w3.org/2000/svg">
<g filter="url(#filter0_d_94_86629)">
<path d="M291.301 674.496C296.308 570.997 -51.4661 141.38 10.1981 58.1054C71.8623 -25.169 453.366 -79.4932 550.902 -114.474C648.439 -149.456 840.988 166.405 941.521 191.508C1042.05 216.61 1132.89 270.961 1202.53 347.686L814.601 699.813L291.301 674.496Z" fill="url(#paint0_linear_94_86629)"/>
<path d="M291.821 674.021C292.306 661.005 287.394 643.067 278.594 621.521C269.673 599.68 256.729 574.063 241.258 545.99C210.315 489.847 169.23 423.824 129.932 358.459C90.6258 293.082 53.1066 228.363 29.2667 174.79C17.3461 148.002 8.85737 124.027 5.26956 104.166C1.67807 84.2843 3.01848 68.6403 10.5995 58.4025C18.2483 48.0732 30.8865 38.158 47.3849 28.6492C63.8769 19.1441 84.192 10.065 107.158 1.39543C153.091 -15.9437 209.585 -31.6289 267.217 -45.809C324.849 -59.9889 383.599 -72.6589 434.05 -83.9734C484.485 -95.2843 526.651 -105.246 551.071 -114.004C563.118 -118.325 576.67 -117.243 591.398 -111.93C606.128 -106.616 621.997 -97.0807 638.647 -84.5533C671.946 -59.4975 708.274 -22.5395 744.724 16.3272C781.16 55.1798 817.719 95.9412 851.443 128.548C868.308 144.853 884.476 159.132 899.579 170.122C914.677 181.108 928.743 188.832 941.4 191.992C1041.68 217.031 1132.29 271.196 1201.82 347.653L814.418 699.303L291.821 674.021Z" stroke="white" stroke-opacity="0.3"/>
</g>
<defs>
<filter id="filter0_d_94_86629" x="0.867432" y="-125.176" width="1219.66" height="836.989" filterUnits="userSpaceOnUse" color-interpolation-filters="sRGB">
<feFlood flood-opacity="0" result="BackgroundImageFix"/>
<feColorMatrix in="SourceAlpha" type="matrix" values="0 0 0 0 0 0 0 0 0 0 0 0 0 0 0 0 0 0 127 0" result="hardAlpha"/>
<feOffset dx="8" dy="2"/>
<feGaussianBlur stdDeviation="5"/>
<feComposite in2="hardAlpha" operator="out"/>
<feColorMatrix type="matrix" values="0 0 0 0 1 0 0 0 0 1 0 0 0 0 1 0 0 0 0.25 0"/>
<feBlend mode="normal" in2="BackgroundImageFix" result="effect1_dropShadow_94_86629"/>
<feBlend mode="normal" in="SourceGraphic" in2="effect1_dropShadow_94_86629" result="shape"/>
</filter>
<linearGradient id="paint0_linear_94_86629" x1="579.814" y1="688.454" x2="618.672" y2="-114.74" gradientUnits="userSpaceOnUse">
<stop stop-color="#0F3069"/>
<stop offset="1" stop-color="#003EAA"/>
</linearGradient>
</defs>
</svg>
