<svg width="554" height="514" viewBox="0 0 554 514" fill="none" xmlns="http://www.w3.org/2000/svg">
<g filter="url(#filter0_d_90_18587)">
<path d="M291.365 620.054C296.372 516.555 -51.4019 86.9373 10.2623 3.66289C71.9265 -79.6115 453.43 -133.936 550.966 -168.917C648.503 -203.898 841.052 111.962 941.586 137.065C1042.12 162.168 1132.95 216.518 1202.59 293.243L814.665 645.37L291.365 620.054Z" fill="url(#paint0_linear_90_18587)"/>
<path d="M291.886 619.578C292.37 606.562 287.458 588.625 278.658 567.079C269.737 545.237 256.793 519.62 241.322 491.548C210.38 435.404 169.294 369.381 129.996 304.016C90.69 238.639 53.1708 173.92 29.3309 120.348C17.4103 93.5599 8.92158 69.5849 5.33377 49.7237C1.74228 29.8418 3.08269 14.1978 10.6637 3.95998C18.3125 -6.36927 30.9508 -16.2845 47.4491 -25.7933C63.9411 -35.2984 84.2562 -44.3775 107.223 -53.0471C153.156 -70.3862 209.649 -86.0714 267.282 -100.252C324.913 -114.431 383.664 -127.101 434.115 -138.416C482.973 -149.373 524.073 -159.064 548.795 -167.621L551.135 -168.447C563.182 -172.767 576.734 -171.686 591.462 -166.372C606.192 -161.058 622.061 -151.523 638.711 -138.996C672.01 -113.94 708.339 -76.982 744.788 -38.1153C781.224 0.737274 817.783 41.4987 851.507 74.1054C868.372 90.4107 884.54 104.689 899.644 115.679C914.27 126.322 927.927 133.903 940.274 137.24L941.465 137.55C1041.74 162.588 1132.35 216.754 1201.89 293.211L814.482 644.861L291.886 619.578Z" stroke="white" stroke-opacity="0.3"/>
</g>
<defs>
<filter id="filter0_d_90_18587" x="0.931641" y="-179.618" width="1219.66" height="836.989" filterUnits="userSpaceOnUse" color-interpolation-filters="sRGB">
<feFlood flood-opacity="0" result="BackgroundImageFix"/>
<feColorMatrix in="SourceAlpha" type="matrix" values="0 0 0 0 0 0 0 0 0 0 0 0 0 0 0 0 0 0 127 0" result="hardAlpha"/>
<feOffset dx="8" dy="2"/>
<feGaussianBlur stdDeviation="5"/>
<feComposite in2="hardAlpha" operator="out"/>
<feColorMatrix type="matrix" values="0 0 0 0 1 0 0 0 0 1 0 0 0 0 1 0 0 0 0.25 0"/>
<feBlend mode="normal" in2="BackgroundImageFix" result="effect1_dropShadow_90_18587"/>
<feBlend mode="normal" in="SourceGraphic" in2="effect1_dropShadow_90_18587" result="shape"/>
</filter>
<linearGradient id="paint0_linear_90_18587" x1="579.879" y1="634.012" x2="618.736" y2="-169.182" gradientUnits="userSpaceOnUse">
<stop stop-color="#0F3069"/>
<stop offset="1" stop-color="#003EAA"/>
</linearGradient>
</defs>
</svg>
