<svg width="78" height="1147" viewBox="0 0 78 1147" fill="none" xmlns="http://www.w3.org/2000/svg">
<g filter="url(#filter0_d_192_7471)">
<path d="M-746.592 605.326C-664.042 542.694 -558.085 0.206789 -454.652 -6.00771C-351.219 -12.2222 -64.5657 245.318 24.8888 297.615C114.343 349.913 -4.10802 700.359 41.2158 793.541C86.5397 886.723 -39.5858 1031.93 -53.6694 1134.59L-429.92 1022.7L-746.592 605.326Z" fill="url(#paint0_linear_192_7471)"/>
<path d="M-745.893 605.419C-735.605 597.431 -725.011 582.146 -714.147 561.563C-703.134 540.698 -691.811 514.325 -680.229 484.436C-657.067 424.662 -632.846 350.767 -607.981 278.665C-583.112 206.549 -557.6 136.226 -531.846 83.5468C-518.969 57.2056 -506.043 35.3016 -493.124 19.796C-480.19 4.27438 -467.338 -4.74518 -454.622 -5.5092C-441.792 -6.28002 -426.075 -2.96047 -408.191 3.57898C-390.314 10.1159 -370.308 19.8568 -348.912 31.8931C-306.122 55.9658 -257.817 89.196 -209.935 124.265C-162.053 159.334 -114.61 196.23 -73.5365 227.635C-32.4758 259.03 2.24061 284.954 24.6368 298.047C35.6856 304.507 43.5595 315.588 48.9453 330.289C54.3319 344.993 57.2156 363.282 58.3058 384.089C60.4861 425.705 55.4875 477.286 49.1045 530.186C42.7238 583.068 34.9591 637.269 31.6245 684.06C29.957 707.459 29.3962 729.022 30.6719 747.657C31.9073 765.703 34.8673 781.041 40.2393 792.648L40.7664 793.76C52.0322 816.921 52.6599 843.346 47.0015 871.606C41.3425 899.869 29.4059 929.921 15.5963 960.305C8.69245 975.494 1.32406 990.758 -5.9579 1005.92C-13.2388 1021.08 -20.4341 1036.13 -26.9858 1050.89C-39.9886 1080.19 -50.4753 1108.36 -54.0834 1133.95L-429.62 1022.27L-745.893 605.419Z" stroke="white" stroke-opacity="0.3"/>
</g>
<defs>
<filter id="filter0_d_192_7471" x="-748.592" y="-14.1184" width="825.916" height="1160.71" filterUnits="userSpaceOnUse" color-interpolation-filters="sRGB">
<feFlood flood-opacity="0" result="BackgroundImageFix"/>
<feColorMatrix in="SourceAlpha" type="matrix" values="0 0 0 0 0 0 0 0 0 0 0 0 0 0 0 0 0 0 127 0" result="hardAlpha"/>
<feOffset dx="8" dy="2"/>
<feGaussianBlur stdDeviation="5"/>
<feComposite in2="hardAlpha" operator="out"/>
<feColorMatrix type="matrix" values="0 0 0 0 1 0 0 0 0 1 0 0 0 0 1 0 0 0 0.25 0"/>
<feBlend mode="normal" in2="BackgroundImageFix" result="effect1_dropShadow_192_7471"/>
<feBlend mode="normal" in="SourceGraphic" in2="effect1_dropShadow_192_7471" result="shape"/>
</filter>
<linearGradient id="paint0_linear_192_7471" x1="-572" y1="835.439" x2="68.6154" y2="349.391" gradientUnits="userSpaceOnUse">
<stop stop-color="#0F3069"/>
<stop offset="1" stop-color="#003EAA"/>
</linearGradient>
</defs>
</svg>
