<svg width="415" height="477" viewBox="0 0 415 477" fill="none" xmlns="http://www.w3.org/2000/svg">
<g filter="url(#filter0_d_90_19306)">
<path d="M92.371 41.061C134.061 58.821 363.042 -18.6212 387.839 19.3072C412.636 57.2356 377.022 221.951 376.568 267.264C376.114 312.577 217.345 343.617 191.793 381.041C166.241 418.464 130.166 447.471 88.1287 464.392L2.57512 251.848L92.371 41.061Z" fill="#017F38" fill-opacity="0.4" shape-rendering="crispEdges"/>
<path d="M92.6376 41.7109C97.9662 43.8273 106.022 44.5041 116.036 44.1698C126.364 43.825 138.848 42.4014 152.713 40.3152C180.443 36.1432 213.767 29.3095 246.533 23.1121C279.313 16.9119 311.535 11.3487 337.106 9.70188C349.893 8.8784 360.988 9.03595 369.646 10.5727C378.053 12.0649 384.053 14.8384 387.131 19.1582L387.42 19.5808C390.466 24.2385 392.606 30.8828 393.999 39.0763C395.392 47.2624 396.032 56.9558 396.103 67.6824C396.244 89.1358 394.105 114.674 391.176 140.46C388.246 166.245 384.528 192.259 381.512 214.671C378.592 236.368 376.327 254.713 376.085 266.172L376.068 267.259C376.013 272.769 373.552 278.102 369.164 283.305C364.774 288.51 358.481 293.554 350.828 298.474C335.521 308.315 314.871 317.598 293.398 326.65C271.942 335.694 249.663 344.509 231.164 353.397C221.912 357.842 213.588 362.312 206.773 366.849C200.177 371.241 194.963 375.715 191.691 380.313L191.381 380.758C165.978 417.963 130.152 446.829 88.4044 463.74L3.11632 251.853L92.6376 41.7109Z" stroke="white" stroke-opacity="0.3" shape-rendering="crispEdges"/>
</g>
<defs>
<filter id="filter0_d_90_19306" x="0.575134" y="0.709625" width="414.034" height="475.682" filterUnits="userSpaceOnUse" color-interpolation-filters="sRGB">
<feFlood flood-opacity="0" result="BackgroundImageFix"/>
<feColorMatrix in="SourceAlpha" type="matrix" values="0 0 0 0 0 0 0 0 0 0 0 0 0 0 0 0 0 0 127 0" result="hardAlpha"/>
<feOffset dx="8" dy="2"/>
<feGaussianBlur stdDeviation="5"/>
<feComposite in2="hardAlpha" operator="out"/>
<feColorMatrix type="matrix" values="0 0 0 0 1 0 0 0 0 1 0 0 0 0 1 0 0 0 0.25 0"/>
<feBlend mode="normal" in2="BackgroundImageFix" result="effect1_dropShadow_90_19306"/>
<feBlend mode="normal" in="SourceGraphic" in2="effect1_dropShadow_90_19306" result="shape"/>
</filter>
</defs>
</svg>
